<?xml version="1.0" encoding="utf-8"?>
<!-- Generator: Adobe Illustrator 22.0.1, SVG Export Plug-In . SVG Version: 6.00 Build 0)  -->
<svg version="1.1" id="Capa_1" xmlns="http://www.w3.org/2000/svg" xmlns:xlink="http://www.w3.org/1999/xlink" x="0px" y="0px"
	 viewBox="0 0 756 741.7" style="enable-background:new 0 0 756 741.7;" xml:space="preserve">
<style type="text/css">
	.st0{fill:#FFFFFF;}
</style>
<g>
	<path class="st0" d="M446.9,272.5c-18.3,18.5-36.3,36.8-54.1,54.9c56.2,42.8,60.3,101.3,9,152.9c-47.1,47.3-94.1,94.6-141.5,141.4
		c-39.7,39.2-94.7,39.3-133.1,1.1c-38.4-38.1-38.3-93.3,0.5-133.2c15.5-15.9,30.4-32.7,47.4-46.9c15.4-12.8,19.1-24.8,12.1-44.5
		c-7.2-20.2-8.4-42.5-11.6-60.8c0.6,3.5-22.2,21.2-25.4,24.2c-9.2,8.7-18.4,17.4-27.5,26.1c-18.4,17.6-37.3,35.1-54.4,54
		c-28.6,31.6-52.1,80.3-49,123.8s26.4,87.4,58.1,116.9c45.1,42,115,56.9,173.1,35.6c19-7,36.6-15.9,51.4-30.2
		c58-56.5,116.7-112.5,171.5-171.9C538.9,444.7,523.9,328.2,446.9,272.5z"/>
	<path class="st0" d="M728.8,135.5C707.8,75,659.2,29,595.7,16.2c-47.8-9.6-103.8,2.5-139.4,37.2c-58,56.5-116.6,112.5-171.5,171.9
		c-65.5,70.9-50.4,188.6,26.1,243.4c18.4-18.5,36.5-36.7,54.4-54.7c-56.3-42.9-60.4-101.4-9.1-152.9
		c47.1-47.3,94.1-94.6,141.5-141.4c39.7-39.2,94.8-39.3,133.1-1.1c38.4,38.2,38.3,93.3-0.5,133.2c-15.5,15.9-30.4,32.7-47.4,46.9
		c-15.4,12.8-19.1,24.8-12.1,44.5c7.2,20.2,8.4,42.5,11.9,62.2c36.4-35.6,74.9-70.5,109.8-108.6c15.5-16.9,24.7-40,35.3-61
		c5.3-10.6,7.3-23.4,8.2-35.2c0.9-11.3,0.6-22.6,0.2-33.9C735.9,156,732.2,145.3,728.8,135.5z"/>
</g>
</svg>
