<?xml version="1.0" encoding="utf-8"?>
<!-- Generator: Adobe Illustrator 22.0.1, SVG Export Plug-In . SVG Version: 6.00 Build 0)  -->
<svg version="1.1" id="Capa_1" xmlns="http://www.w3.org/2000/svg" xmlns:xlink="http://www.w3.org/1999/xlink" x="0px" y="0px"
	 viewBox="0 0 500 216" style="enable-background:new 0 0 500 216;" xml:space="preserve">
<style type="text/css">
	.st0{fill:#C73B2D;}
</style>
<g>
	<g>
		<g>
			<path class="st0" d="M282.7,86c-6.8-3.5-12.9-4.5-28.9-4.5h-33.3V84h7v48.3h-7v2.4h33.6c15.7,0,24.9-2.1,32.3-7.4
				c6.5-4.6,10-11.2,10-19.1C296.3,98.5,291.4,90.6,282.7,86z M271.4,111.8c0,16.2-3.6,20.4-17.2,20.4h-3.6V84h3.3
				c13.7,0,17.5,3.8,17.5,17.7V111.8z"/>
			<path class="st0" d="M336,132.3h-4.8V84h10.2v-2.4h-40.3V84h7v48.3h-7v2.4h63l1.4-18H362C358.4,127.8,351,132.3,336,132.3z"/>
			<path class="st0" d="M429.5,83.8c-4.7-1.8-8.8-2.2-19.7-2.2h-40.6V84h7v48.3h-7v2.4h40.6v-2.4h-10.5v-21.9h11.4
				c8.1,0,15.1-0.8,18.8-2.2c5.9-2.1,9.3-6.5,9.3-12C438.8,90.7,435.2,86,429.5,83.8z M404.5,108h-5.2V84h5.2c7.9,0,10,2.5,10,12
				S412.4,108,404.5,108z"/>
		</g>
		<path class="st0" d="M182.2,81.6c0,0-0.1,0-0.1,0L182.2,81.6l-26.6-0.1V161h-11.8V37.3H96.7V83c-2.8-1-5.8-1.5-8.9-1.5
			c-14.7,0-26.5,11.9-26.5,26.5c0,14.6,11.9,26.5,26.5,26.5c0,0,0.1,0,0.1,0l0,0h26.5V55h11.8v123.7h47.2V133c2.8,1,5.8,1.5,8.9,1.5
			c14.7,0,26.5-11.9,26.5-26.5C208.8,93.4,196.9,81.6,182.2,81.6z M78.9,108.1c0-5,4-9,9-9c4.3,0,7.8,3,8.8,6.9v4.1
			c-0.9,4-4.5,6.9-8.8,6.9C82.9,117.1,78.9,113.1,78.9,108.1z M182.2,117.1c-4.5,0-8.3-3.4-8.9-7.7v-2.6c0.6-4.4,4.4-7.7,8.9-7.7
			c5,0,9,4,9,9C191.3,113.1,187.2,117.1,182.2,117.1z"/>
	</g>
	<path class="st0" d="M493.3,209.4H6.7V6.6h486.6V209.4z M9.9,206.2h480.2V9.8H9.9V206.2z"/>
</g>
</svg>
